<?xml version="1.0" encoding="UTF-8"?>
<svg width="700pt" height="700pt" version="1.1" viewBox="0 0 700 700" xmlns="http://www.w3.org/2000/svg">
 <path d="m280.23 64.215c3.0117-6.6484 1.5859-14.441-3.5703-19.602-5.1328-5.1562-12.949-6.5781-19.578-3.5703-87.012 39.363-147.61 126.98-147.61 228.64 0 138.44 112.4 250.83 250.83 250.83 101.66 0 189.28-60.598 228.64-147.61 3.0117-6.625 1.5859-14.441-3.5703-19.578-5.1562-5.1562-12.949-6.5781-19.602-3.5703-27.09 12.25-57.145 19.086-88.809 19.086-119.12 0-215.83-96.715-215.83-215.83 0-31.664 6.8359-61.715 19.086-88.809zm-47.461 31.406c-4.3398 18.434-6.625 37.637-6.625 57.398 0 138.44 112.4 250.83 250.83 250.83 19.762 0 38.988-2.2852 57.422-6.625-39.293 53.504-102.64 88.293-174.09 88.293-119.12 0-215.83-96.715-215.83-215.83 0-71.445 34.789-134.8 88.293-174.09z" fill-rule="evenodd"/>
</svg>
